<?xml version="1.0" encoding="utf-8"?>
<!-- https://design.ubuntu.com/font, https://ubuntu.com/legal/font-licence -->
<svg viewBox="0 0 500 500" xmlns="http://www.w3.org/2000/svg">
  <rect class="background" x="0" y="0" width="500" height="500"/>
  <path class="foreground" d="M 191.039 141.228 Q 191.039 136.778 192.364 133.378 Q 193.689 129.978 195.964 127.703 Q 198.239 125.428 201.264 124.278 Q 204.289 123.128 207.689 123.128 Q 211.039 123.128 214.014 124.278 Q 216.989 125.428 219.239 127.703 Q 221.489 129.978 222.814 133.378 Q 224.139 136.778 224.139 141.228 Q 224.139 145.678 222.814 149.078 Q 221.489 152.478 219.239 154.753 Q 216.989 157.028 214.014 158.178 Q 211.039 159.328 207.689 159.328 Q 204.289 159.328 201.264 158.178 Q 198.239 157.028 195.964 154.753 Q 193.689 152.478 192.364 149.078 Q 191.039 145.678 191.039 141.228 Z M 196.139 141.228 Q 196.139 144.378 196.939 146.953 Q 197.739 149.528 199.214 151.328 Q 200.689 153.128 202.814 154.103 Q 204.939 155.078 207.589 155.078 Q 210.239 155.078 212.339 154.103 Q 214.439 153.128 215.914 151.328 Q 217.389 149.528 218.189 146.953 Q 218.989 144.378 218.989 141.228 Q 218.989 138.078 218.189 135.503 Q 217.389 132.928 215.914 131.128 Q 214.439 129.328 212.339 128.353 Q 210.239 127.378 207.589 127.378 Q 204.939 127.378 202.814 128.353 Q 200.689 129.328 199.214 131.128 Q 197.739 132.928 196.939 135.503 Q 196.139 138.078 196.139 141.228 Z M 249.077 145.628 Q 249.077 141.078 246.827 138.628 Q 244.577 136.178 240.827 136.178 Q 238.727 136.178 237.552 136.328 Q 236.377 136.478 235.677 136.678 L 235.677 153.078 Q 236.527 153.778 238.127 154.428 Q 239.727 155.078 241.627 155.078 Q 243.627 155.078 245.052 154.353 Q 246.477 153.628 247.377 152.353 Q 248.277 151.078 248.677 149.353 Q 249.077 147.628 249.077 145.628 Z M 253.927 145.628 Q 253.927 148.578 253.152 151.078 Q 252.377 153.578 250.877 155.378 Q 249.377 157.178 247.202 158.178 Q 245.027 159.178 242.227 159.178 Q 239.977 159.178 238.252 158.578 Q 236.527 157.978 235.677 157.428 L 235.677 167.828 L 231.027 167.828 L 231.027 133.378 Q 232.677 132.978 235.152 132.503 Q 237.627 132.028 240.877 132.028 Q 243.877 132.028 246.277 132.978 Q 248.677 133.928 250.377 135.678 Q 252.077 137.428 253.002 139.953 Q 253.927 142.478 253.927 145.628 Z M 259.026 145.628 Q 259.026 142.178 260.026 139.603 Q 261.026 137.028 262.676 135.328 Q 264.326 133.628 266.476 132.778 Q 268.626 131.928 270.876 131.928 Q 276.126 131.928 278.926 135.203 Q 281.726 138.478 281.726 145.178 Q 281.726 145.478 281.726 145.953 Q 281.726 146.428 281.676 146.828 L 263.876 146.828 Q 264.176 150.878 266.226 152.978 Q 268.276 155.078 272.626 155.078 Q 275.076 155.078 276.751 154.653 Q 278.426 154.228 279.276 153.828 L 279.926 157.728 Q 279.076 158.178 276.951 158.678 Q 274.826 159.178 272.126 159.178 Q 268.726 159.178 266.251 158.153 Q 263.776 157.128 262.176 155.328 Q 260.576 153.528 259.801 151.053 Q 259.026 148.578 259.026 145.628 Z M 276.876 143.078 Q 276.926 139.928 275.301 137.903 Q 273.676 135.878 270.826 135.878 Q 269.226 135.878 268.001 136.503 Q 266.776 137.128 265.926 138.128 Q 265.076 139.128 264.601 140.428 Q 264.126 141.728 263.976 143.078 Z M 288.424 133.328 Q 290.024 132.928 292.674 132.478 Q 295.324 132.028 298.774 132.028 Q 301.874 132.028 303.924 132.903 Q 305.974 133.778 307.199 135.353 Q 308.424 136.928 308.924 139.128 Q 309.424 141.328 309.424 143.978 L 309.424 158.578 L 304.774 158.578 L 304.774 144.978 Q 304.774 142.578 304.449 140.878 Q 304.124 139.178 303.374 138.128 Q 302.624 137.078 301.374 136.603 Q 300.124 136.128 298.274 136.128 Q 297.524 136.128 296.724 136.178 Q 295.924 136.228 295.199 136.303 Q 294.474 136.378 293.899 136.478 Q 293.324 136.578 293.074 136.628 L 293.074 158.578 L 288.424 158.578 Z" transform="matrix(2.039848, 0, 0, 2.039848, -261.249176, -137.313339)"/>
  <path class="foreground" transform="matrix(2.039848, 0, 0, 2.039848, -261.249176, -137.313339)"/>
  <path class="foreground" d="M 211.986 173.928 L 211.986 180.578 L 201.536 180.578 L 201.536 208.578 L 193.736 208.578 L 193.736 180.578 L 183.286 180.578 L 183.286 173.928 Z M 222.782 203.378 Q 223.882 203.378 224.882 203.328 Q 225.882 203.278 226.482 203.178 L 226.482 197.528 Q 226.032 197.428 225.132 197.328 Q 224.232 197.228 223.482 197.228 Q 222.432 197.228 221.507 197.353 Q 220.582 197.478 219.882 197.828 Q 219.182 198.178 218.782 198.778 Q 218.382 199.378 218.382 200.278 Q 218.382 202.028 219.557 202.703 Q 220.732 203.378 222.782 203.378 Z M 222.182 181.578 Q 225.482 181.578 227.682 182.328 Q 229.882 183.078 231.207 184.478 Q 232.532 185.878 233.082 187.878 Q 233.632 189.878 233.632 192.328 L 233.632 207.828 Q 232.032 208.178 229.182 208.653 Q 226.332 209.128 222.282 209.128 Q 219.732 209.128 217.657 208.678 Q 215.582 208.228 214.082 207.203 Q 212.582 206.178 211.782 204.528 Q 210.982 202.878 210.982 200.478 Q 210.982 198.178 211.907 196.578 Q 212.832 194.978 214.382 194.028 Q 215.932 193.078 217.932 192.653 Q 219.932 192.228 222.082 192.228 Q 223.532 192.228 224.657 192.353 Q 225.782 192.478 226.482 192.678 L 226.482 191.978 Q 226.482 190.078 225.332 188.928 Q 224.182 187.778 221.332 187.778 Q 219.432 187.778 217.582 188.053 Q 215.732 188.328 214.382 188.828 L 213.432 182.828 Q 214.082 182.628 215.057 182.403 Q 216.032 182.178 217.182 182.003 Q 218.332 181.828 219.607 181.703 Q 220.882 181.578 222.182 181.578 Z M 257.227 195.628 Q 257.227 192.178 255.677 190.103 Q 254.127 188.028 251.077 188.028 Q 250.077 188.028 249.227 188.103 Q 248.377 188.178 247.827 188.278 L 247.827 201.728 Q 248.527 202.178 249.652 202.478 Q 250.777 202.778 251.927 202.778 Q 257.227 202.778 257.227 195.628 Z M 264.827 195.428 Q 264.827 198.478 264.077 200.978 Q 263.327 203.478 261.877 205.278 Q 260.427 207.078 258.277 208.078 Q 256.127 209.078 253.327 209.078 Q 251.777 209.078 250.427 208.778 Q 249.077 208.478 247.827 207.928 L 247.827 217.828 L 240.377 217.828 L 240.377 183.178 Q 241.377 182.878 242.677 182.603 Q 243.977 182.328 245.402 182.128 Q 246.827 181.928 248.302 181.803 Q 249.777 181.678 251.127 181.678 Q 254.377 181.678 256.927 182.653 Q 259.477 183.628 261.227 185.403 Q 262.977 187.178 263.902 189.728 Q 264.827 192.278 264.827 195.428 Z M 280.62 203.378 Q 281.72 203.378 282.72 203.328 Q 283.72 203.278 284.32 203.178 L 284.32 197.528 Q 283.87 197.428 282.97 197.328 Q 282.07 197.228 281.32 197.228 Q 280.27 197.228 279.345 197.353 Q 278.42 197.478 277.72 197.828 Q 277.02 198.178 276.62 198.778 Q 276.22 199.378 276.22 200.278 Q 276.22 202.028 277.395 202.703 Q 278.57 203.378 280.62 203.378 Z M 280.02 181.578 Q 283.32 181.578 285.52 182.328 Q 287.72 183.078 289.045 184.478 Q 290.37 185.878 290.92 187.878 Q 291.47 189.878 291.47 192.328 L 291.47 207.828 Q 289.87 208.178 287.02 208.653 Q 284.17 209.128 280.12 209.128 Q 277.57 209.128 275.495 208.678 Q 273.42 208.228 271.92 207.203 Q 270.42 206.178 269.62 204.528 Q 268.82 202.878 268.82 200.478 Q 268.82 198.178 269.745 196.578 Q 270.67 194.978 272.22 194.028 Q 273.77 193.078 275.77 192.653 Q 277.77 192.228 279.92 192.228 Q 281.37 192.228 282.495 192.353 Q 283.62 192.478 284.32 192.678 L 284.32 191.978 Q 284.32 190.078 283.17 188.928 Q 282.02 187.778 279.17 187.778 Q 277.27 187.778 275.42 188.053 Q 273.57 188.328 272.22 188.828 L 271.27 182.828 Q 271.92 182.628 272.895 182.403 Q 273.87 182.178 275.02 182.003 Q 276.17 181.828 277.445 181.703 Q 278.72 181.578 280.02 181.578 Z M 305.772 203.228 Q 307.822 203.228 308.672 202.828 Q 309.522 202.428 309.522 201.278 Q 309.522 200.378 308.422 199.703 Q 307.322 199.028 305.072 198.178 Q 303.322 197.528 301.897 196.828 Q 300.472 196.128 299.472 195.153 Q 298.472 194.178 297.922 192.828 Q 297.372 191.478 297.372 189.578 Q 297.372 185.878 300.122 183.728 Q 302.872 181.578 307.672 181.578 Q 310.072 181.578 312.272 182.003 Q 314.472 182.428 315.772 182.928 L 314.472 188.728 Q 313.172 188.278 311.647 187.928 Q 310.122 187.578 308.222 187.578 Q 304.722 187.578 304.722 189.528 Q 304.722 189.978 304.872 190.328 Q 305.022 190.678 305.472 191.003 Q 305.922 191.328 306.697 191.703 Q 307.472 192.078 308.672 192.528 Q 311.122 193.428 312.722 194.303 Q 314.322 195.178 315.247 196.203 Q 316.172 197.228 316.547 198.478 Q 316.922 199.728 316.922 201.378 Q 316.922 205.278 313.997 207.278 Q 311.072 209.278 305.722 209.278 Q 302.222 209.278 299.897 208.678 Q 297.572 208.078 296.672 207.678 L 297.922 201.628 Q 299.822 202.378 301.822 202.803 Q 303.822 203.228 305.772 203.228 Z" transform="matrix(2.039848, 0, 0, 2.039848, -261.249176, -137.313339)"/>
  <path class="foreground" transform="matrix(2.039848, 0, 0, 2.039848, -261.249176, -137.313339)"/>
  <path class="foreground" d="M 190.789 244.078 Q 191.589 245.078 192.814 246.703 Q 194.039 248.328 195.339 250.303 Q 196.639 252.278 197.914 254.428 Q 199.189 256.578 200.089 258.578 L 194.789 258.578 Q 193.789 256.678 192.614 254.728 Q 191.439 252.778 190.239 251.003 Q 189.039 249.228 187.864 247.678 Q 186.689 246.128 185.739 244.978 Q 185.089 245.028 184.414 245.028 Q 183.739 245.028 183.039 245.028 L 178.689 245.028 L 178.689 258.578 L 173.839 258.578 L 173.839 224.428 Q 175.889 223.928 178.414 223.753 Q 180.939 223.578 183.039 223.578 Q 190.339 223.578 194.164 226.328 Q 197.989 229.078 197.989 234.528 Q 197.989 237.978 196.164 240.428 Q 194.339 242.878 190.789 244.078 Z M 183.439 227.828 Q 180.339 227.828 178.689 227.978 L 178.689 241.028 L 182.139 241.028 Q 184.639 241.028 186.639 240.778 Q 188.639 240.528 190.014 239.828 Q 191.389 239.128 192.139 237.853 Q 192.889 236.578 192.889 234.478 Q 192.889 232.528 192.139 231.228 Q 191.389 229.928 190.114 229.178 Q 188.839 228.428 187.114 228.128 Q 185.389 227.828 183.439 227.828 Z M 203.53 245.628 Q 203.53 242.178 204.53 239.603 Q 205.53 237.028 207.18 235.328 Q 208.83 233.628 210.98 232.778 Q 213.13 231.928 215.38 231.928 Q 220.63 231.928 223.43 235.203 Q 226.23 238.478 226.23 245.178 Q 226.23 245.478 226.23 245.953 Q 226.23 246.428 226.18 246.828 L 208.38 246.828 Q 208.68 250.878 210.73 252.978 Q 212.78 255.078 217.13 255.078 Q 219.58 255.078 221.255 254.653 Q 222.93 254.228 223.78 253.828 L 224.43 257.728 Q 223.58 258.178 221.455 258.678 Q 219.33 259.178 216.63 259.178 Q 213.23 259.178 210.755 258.153 Q 208.28 257.128 206.68 255.328 Q 205.08 253.528 204.305 251.053 Q 203.53 248.578 203.53 245.628 Z M 221.38 243.078 Q 221.43 239.928 219.805 237.903 Q 218.18 235.878 215.33 235.878 Q 213.73 235.878 212.505 236.503 Q 211.28 237.128 210.43 238.128 Q 209.58 239.128 209.105 240.428 Q 208.63 241.728 208.48 243.078 Z M 241.728 255.228 Q 243.378 255.228 244.653 255.153 Q 245.928 255.078 246.778 254.878 L 246.778 247.128 Q 246.278 246.878 245.153 246.703 Q 244.028 246.528 242.428 246.528 Q 241.378 246.528 240.203 246.678 Q 239.028 246.828 238.053 247.303 Q 237.078 247.778 236.428 248.603 Q 235.778 249.428 235.778 250.778 Q 235.778 253.278 237.378 254.253 Q 238.978 255.228 241.728 255.228 Z M 241.328 231.928 Q 244.128 231.928 246.053 232.653 Q 247.978 233.378 249.153 234.703 Q 250.328 236.028 250.828 237.853 Q 251.328 239.678 251.328 241.878 L 251.328 258.128 Q 250.728 258.228 249.653 258.403 Q 248.578 258.578 247.228 258.728 Q 245.878 258.878 244.303 259.003 Q 242.728 259.128 241.178 259.128 Q 238.978 259.128 237.128 258.678 Q 235.278 258.228 233.928 257.253 Q 232.578 256.278 231.828 254.678 Q 231.078 253.078 231.078 250.828 Q 231.078 248.678 231.953 247.128 Q 232.828 245.578 234.328 244.628 Q 235.828 243.678 237.828 243.228 Q 239.828 242.778 242.028 242.778 Q 242.728 242.778 243.478 242.853 Q 244.228 242.928 244.903 243.053 Q 245.578 243.178 246.078 243.278 Q 246.578 243.378 246.778 243.428 L 246.778 242.128 Q 246.778 240.978 246.528 239.853 Q 246.278 238.728 245.628 237.853 Q 244.978 236.978 243.853 236.453 Q 242.728 235.928 240.928 235.928 Q 238.628 235.928 236.903 236.253 Q 235.178 236.578 234.328 236.928 L 233.778 233.078 Q 234.678 232.678 236.778 232.303 Q 238.878 231.928 241.328 231.928 Z M 275.822 238.078 Q 274.972 237.378 273.372 236.728 Q 271.772 236.078 269.872 236.078 Q 267.872 236.078 266.447 236.803 Q 265.022 237.528 264.122 238.803 Q 263.222 240.078 262.822 241.828 Q 262.422 243.578 262.422 245.578 Q 262.422 250.128 264.672 252.603 Q 266.922 255.078 270.672 255.078 Q 272.572 255.078 273.847 254.903 Q 275.122 254.728 275.822 254.528 Z M 275.822 220.578 L 280.472 219.778 L 280.472 257.828 Q 278.872 258.278 276.372 258.728 Q 273.872 259.178 270.622 259.178 Q 267.622 259.178 265.222 258.228 Q 262.822 257.278 261.122 255.528 Q 259.422 253.778 258.497 251.253 Q 257.572 248.728 257.572 245.578 Q 257.572 242.578 258.347 240.078 Q 259.122 237.578 260.622 235.778 Q 262.122 233.978 264.297 232.978 Q 266.472 231.978 269.272 231.978 Q 271.522 231.978 273.247 232.578 Q 274.972 233.178 275.822 233.728 Z M 287.021 245.628 Q 287.021 242.178 288.021 239.603 Q 289.021 237.028 290.671 235.328 Q 292.321 233.628 294.471 232.778 Q 296.621 231.928 298.871 231.928 Q 304.121 231.928 306.921 235.203 Q 309.721 238.478 309.721 245.178 Q 309.721 245.478 309.721 245.953 Q 309.721 246.428 309.671 246.828 L 291.871 246.828 Q 292.171 250.878 294.221 252.978 Q 296.271 255.078 300.621 255.078 Q 303.071 255.078 304.746 254.653 Q 306.421 254.228 307.271 253.828 L 307.921 257.728 Q 307.071 258.178 304.946 258.678 Q 302.821 259.178 300.121 259.178 Q 296.721 259.178 294.246 258.153 Q 291.771 257.128 290.171 255.328 Q 288.571 253.528 287.796 251.053 Q 287.021 248.578 287.021 245.628 Z M 304.871 243.078 Q 304.921 239.928 303.296 237.903 Q 301.671 235.878 298.821 235.878 Q 297.221 235.878 295.996 236.503 Q 294.771 237.128 293.921 238.128 Q 293.071 239.128 292.596 240.428 Q 292.121 241.728 291.971 243.078 Z M 326.02 232.028 Q 326.62 232.028 327.395 232.103 Q 328.17 232.178 328.92 232.303 Q 329.67 232.428 330.295 232.553 Q 330.92 232.678 331.22 232.778 L 330.42 236.828 Q 329.87 236.628 328.595 236.353 Q 327.32 236.078 325.32 236.078 Q 324.02 236.078 322.745 236.353 Q 321.47 236.628 321.07 236.728 L 321.07 258.578 L 316.42 258.578 L 316.42 233.678 Q 318.07 233.078 320.52 232.553 Q 322.97 232.028 326.02 232.028 Z" transform="matrix(2.039848, 0, 0, 2.039848, -261.249176, -137.313339)"/>

  <style>
    .background {
      fill: rgb(250, 250, 250);
    }

    .foreground {
      fill: rgb(42, 42, 42);
    }
  </style>
</svg>