<!-- https://design.ubuntu.com/font, https://ubuntu.com/legal/font-licence -->

<svg xmlns="http://www.w3.org/2000/svg" viewBox="74.97 107.65 205.28 23.37">
  <path d="M 78.177 118.084 Q 78.177 119.469 78.517 120.599 Q 78.857 121.729 79.501 122.519 Q 80.145 123.308 81.068 123.746 Q 81.992 124.183 83.158 124.183 Q 84.3 124.183 85.224 123.746 Q 86.147 123.308 86.791 122.519 Q 87.435 121.729 87.775 120.599 Q 88.115 119.469 88.115 118.084 Q 88.115 116.699 87.775 115.569 Q 87.435 114.439 86.791 113.649 Q 86.147 112.859 85.224 112.422 Q 84.3 111.985 83.158 111.985 Q 81.992 111.985 81.068 112.422 Q 80.145 112.859 79.501 113.661 Q 78.857 114.463 78.517 115.581 Q 78.177 116.699 78.177 118.084 Z M 91.323 118.084 Q 91.323 120.247 90.679 121.899 Q 90.035 123.551 88.93 124.657 Q 87.824 125.763 86.342 126.322 Q 84.859 126.88 83.183 126.88 Q 81.506 126.88 80.011 126.322 Q 78.517 125.763 77.411 124.657 Q 76.306 123.551 75.65 121.899 Q 74.993 120.247 74.993 118.084 Q 74.993 115.921 75.65 114.281 Q 76.306 112.641 77.436 111.523 Q 78.566 110.405 80.048 109.846 Q 81.53 109.287 83.183 109.287 Q 84.835 109.287 86.317 109.846 Q 87.8 110.405 88.905 111.523 Q 90.011 112.641 90.667 114.281 Q 91.323 115.921 91.323 118.084 Z M 102.962 120.222 Q 102.962 118.254 102.075 117.16 Q 101.188 116.067 99.219 116.067 Q 98.806 116.067 98.357 116.103 Q 97.907 116.14 97.47 116.261 L 97.47 123.527 Q 97.859 123.794 98.503 124.025 Q 99.146 124.256 99.875 124.256 Q 101.479 124.256 102.22 123.163 Q 102.962 122.069 102.962 120.222 Z M 105.975 120.174 Q 105.975 121.632 105.598 122.847 Q 105.221 124.062 104.517 124.936 Q 103.812 125.811 102.755 126.297 Q 101.698 126.783 100.361 126.783 Q 99.462 126.783 98.709 126.565 Q 97.956 126.346 97.47 126.079 L 97.47 131.011 L 94.529 131.011 L 94.529 114.22 Q 95.429 113.977 96.741 113.758 Q 98.053 113.54 99.511 113.54 Q 101.018 113.54 102.208 114.001 Q 103.399 114.463 104.237 115.326 Q 105.076 116.188 105.525 117.416 Q 105.975 118.643 105.975 120.174 Z M 108.306 120.222 Q 108.306 118.546 108.805 117.282 Q 109.303 116.018 110.129 115.18 Q 110.955 114.342 112.024 113.916 Q 113.093 113.491 114.211 113.491 Q 116.836 113.491 118.306 115.119 Q 119.776 116.747 119.776 119.979 Q 119.776 120.222 119.764 120.526 Q 119.752 120.83 119.727 121.073 L 111.344 121.073 Q 111.465 122.604 112.425 123.442 Q 113.385 124.28 115.208 124.28 Q 116.277 124.28 117.164 124.086 Q 118.051 123.892 118.561 123.673 L 118.95 126.079 Q 118.707 126.2 118.282 126.334 Q 117.856 126.467 117.31 126.577 Q 116.763 126.686 116.131 126.759 Q 115.499 126.832 114.843 126.832 Q 113.166 126.832 111.927 126.334 Q 110.688 125.836 109.886 124.949 Q 109.084 124.062 108.695 122.859 Q 108.306 121.656 108.306 120.222 Z M 116.836 118.91 Q 116.836 118.303 116.666 117.756 Q 116.495 117.209 116.167 116.808 Q 115.839 116.407 115.366 116.176 Q 114.892 115.945 114.236 115.945 Q 113.555 115.945 113.045 116.201 Q 112.535 116.456 112.182 116.869 Q 111.83 117.282 111.635 117.817 Q 111.441 118.351 111.368 118.91 Z M 122.885 114.22 Q 123.736 113.977 125.096 113.758 Q 126.457 113.54 128.11 113.54 Q 129.665 113.54 130.71 113.965 Q 131.755 114.39 132.374 115.156 Q 132.994 115.921 133.249 117.003 Q 133.504 118.084 133.504 119.372 L 133.504 126.516 L 130.564 126.516 L 130.564 119.833 Q 130.564 118.813 130.43 118.096 Q 130.297 117.379 129.993 116.93 Q 129.689 116.48 129.167 116.274 Q 128.644 116.067 127.891 116.067 Q 127.332 116.067 126.725 116.14 Q 126.117 116.213 125.825 116.261 L 125.825 126.516 L 122.885 126.516 Z M 148.983 109.676 L 148.983 112.325 L 143.807 112.325 L 143.807 126.516 L 140.721 126.516 L 140.721 112.325 L 135.545 112.325 L 135.545 109.676 Z M 154.667 124.45 Q 156.028 124.45 156.733 124.305 L 156.733 121.048 Q 156.49 120.976 156.028 120.903 Q 155.566 120.83 155.007 120.83 Q 154.521 120.83 154.023 120.903 Q 153.525 120.976 153.124 121.17 Q 152.723 121.364 152.48 121.717 Q 152.237 122.069 152.237 122.604 Q 152.237 123.649 152.893 124.05 Q 153.549 124.45 154.667 124.45 Z M 154.424 113.491 Q 155.882 113.491 156.879 113.856 Q 157.875 114.22 158.47 114.876 Q 159.066 115.532 159.321 116.468 Q 159.576 117.403 159.576 118.521 L 159.576 126.224 Q 158.895 126.37 157.522 126.577 Q 156.15 126.783 154.424 126.783 Q 153.282 126.783 152.334 126.565 Q 151.387 126.346 150.718 125.86 Q 150.05 125.374 149.674 124.596 Q 149.297 123.819 149.297 122.677 Q 149.297 121.583 149.722 120.83 Q 150.147 120.076 150.876 119.603 Q 151.605 119.129 152.565 118.922 Q 153.525 118.716 154.57 118.716 Q 155.056 118.716 155.591 118.776 Q 156.125 118.837 156.733 118.983 L 156.733 118.497 Q 156.733 117.987 156.611 117.525 Q 156.49 117.063 156.186 116.711 Q 155.882 116.359 155.384 116.164 Q 154.886 115.97 154.133 115.97 Q 153.112 115.97 152.262 116.116 Q 151.411 116.261 150.876 116.456 L 150.512 114.074 Q 151.071 113.88 152.14 113.686 Q 153.209 113.491 154.424 113.491 Z M 171.606 120.222 Q 171.606 118.254 170.719 117.16 Q 169.832 116.067 167.864 116.067 Q 167.451 116.067 167.001 116.103 Q 166.552 116.14 166.114 116.261 L 166.114 123.527 Q 166.503 123.794 167.147 124.025 Q 167.791 124.256 168.52 124.256 Q 170.124 124.256 170.865 123.163 Q 171.606 122.069 171.606 120.222 Z M 174.619 120.174 Q 174.619 121.632 174.243 122.847 Q 173.866 124.062 173.161 124.936 Q 172.457 125.811 171.4 126.297 Q 170.342 126.783 169.006 126.783 Q 168.107 126.783 167.354 126.565 Q 166.6 126.346 166.114 126.079 L 166.114 131.011 L 163.174 131.011 L 163.174 114.22 Q 164.073 113.977 165.385 113.758 Q 166.697 113.54 168.155 113.54 Q 169.662 113.54 170.853 114.001 Q 172.043 114.463 172.882 115.326 Q 173.72 116.188 174.17 117.416 Q 174.619 118.643 174.619 120.174 Z M 182.127 124.45 Q 183.488 124.45 184.192 124.305 L 184.192 121.048 Q 183.949 120.976 183.488 120.903 Q 183.026 120.83 182.467 120.83 Q 181.981 120.83 181.483 120.903 Q 180.985 120.976 180.584 121.17 Q 180.183 121.364 179.94 121.717 Q 179.697 122.069 179.697 122.604 Q 179.697 123.649 180.353 124.05 Q 181.009 124.45 182.127 124.45 Z M 181.884 113.491 Q 183.342 113.491 184.338 113.856 Q 185.334 114.22 185.93 114.876 Q 186.525 115.532 186.78 116.468 Q 187.035 117.403 187.035 118.521 L 187.035 126.224 Q 186.355 126.37 184.982 126.577 Q 183.609 126.783 181.884 126.783 Q 180.742 126.783 179.794 126.565 Q 178.846 126.346 178.178 125.86 Q 177.51 125.374 177.133 124.596 Q 176.756 123.819 176.756 122.677 Q 176.756 121.583 177.182 120.83 Q 177.607 120.076 178.336 119.603 Q 179.065 119.129 180.025 118.922 Q 180.985 118.716 182.03 118.716 Q 182.516 118.716 183.05 118.776 Q 183.585 118.837 184.192 118.983 L 184.192 118.497 Q 184.192 117.987 184.071 117.525 Q 183.949 117.063 183.646 116.711 Q 183.342 116.359 182.844 116.164 Q 182.345 115.97 181.592 115.97 Q 180.572 115.97 179.721 116.116 Q 178.871 116.261 178.336 116.456 L 177.971 114.074 Q 178.53 113.88 179.6 113.686 Q 180.669 113.491 181.884 113.491 Z M 193.817 124.402 Q 194.983 124.402 195.518 124.122 Q 196.052 123.843 196.052 123.163 Q 196.052 122.531 195.481 122.118 Q 194.91 121.705 193.598 121.219 Q 192.796 120.927 192.128 120.599 Q 191.46 120.271 190.974 119.833 Q 190.488 119.396 190.208 118.776 Q 189.929 118.157 189.929 117.258 Q 189.929 115.508 191.217 114.5 Q 192.505 113.491 194.716 113.491 Q 195.834 113.491 196.854 113.698 Q 197.875 113.904 198.385 114.099 L 197.851 116.48 Q 197.365 116.261 196.611 116.079 Q 195.858 115.897 194.862 115.897 Q 193.963 115.897 193.404 116.201 Q 192.845 116.504 192.845 117.136 Q 192.845 117.452 192.954 117.695 Q 193.064 117.938 193.331 118.145 Q 193.598 118.351 194.036 118.558 Q 194.473 118.764 195.105 118.983 Q 196.15 119.372 196.879 119.748 Q 197.608 120.125 198.081 120.599 Q 198.555 121.073 198.774 121.68 Q 198.993 122.288 198.993 123.138 Q 198.993 124.961 197.644 125.896 Q 196.295 126.832 193.793 126.832 Q 192.116 126.832 191.095 126.552 Q 190.075 126.273 189.662 126.103 L 190.172 123.649 Q 190.828 123.916 191.739 124.159 Q 192.65 124.402 193.817 124.402 Z M 206.523 109.506 Q 210.168 109.506 212.1 110.842 Q 214.032 112.179 214.032 114.925 Q 214.032 118.351 210.654 119.566 Q 211.116 120.125 211.699 120.927 Q 212.282 121.729 212.89 122.664 Q 213.497 123.6 214.056 124.584 Q 214.615 125.568 215.053 126.516 L 211.626 126.516 Q 211.165 125.641 210.63 124.754 Q 210.095 123.867 209.549 123.029 Q 209.002 122.191 208.467 121.449 Q 207.933 120.708 207.471 120.125 Q 207.131 120.149 206.888 120.149 Q 206.645 120.149 206.426 120.149 L 204.944 120.149 L 204.944 126.516 L 201.882 126.516 L 201.882 109.919 Q 203 109.676 204.263 109.591 Q 205.527 109.506 206.523 109.506 Z M 206.742 112.155 Q 205.77 112.155 204.944 112.228 L 204.944 117.671 L 206.28 117.671 Q 207.398 117.671 208.249 117.549 Q 209.099 117.428 209.67 117.112 Q 210.241 116.796 210.533 116.261 Q 210.824 115.727 210.824 114.901 Q 210.824 114.123 210.533 113.588 Q 210.241 113.054 209.694 112.738 Q 209.148 112.422 208.394 112.288 Q 207.641 112.155 206.742 112.155 Z M 216.584 120.222 Q 216.584 118.546 217.082 117.282 Q 217.58 116.018 218.407 115.18 Q 219.233 114.342 220.302 113.916 Q 221.371 113.491 222.489 113.491 Q 225.113 113.491 226.584 115.119 Q 228.054 116.747 228.054 119.979 Q 228.054 120.222 228.042 120.526 Q 228.029 120.83 228.005 121.073 L 219.622 121.073 Q 219.743 122.604 220.703 123.442 Q 221.663 124.28 223.485 124.28 Q 224.554 124.28 225.441 124.086 Q 226.328 123.892 226.839 123.673 L 227.227 126.079 Q 226.984 126.2 226.559 126.334 Q 226.134 126.467 225.587 126.577 Q 225.04 126.686 224.409 126.759 Q 223.777 126.832 223.121 126.832 Q 221.444 126.832 220.205 126.334 Q 218.965 125.836 218.164 124.949 Q 217.362 124.062 216.973 122.859 Q 216.584 121.656 216.584 120.222 Z M 225.113 118.91 Q 225.113 118.303 224.943 117.756 Q 224.773 117.209 224.445 116.808 Q 224.117 116.407 223.643 116.176 Q 223.169 115.945 222.513 115.945 Q 221.833 115.945 221.323 116.201 Q 220.812 116.456 220.46 116.869 Q 220.108 117.282 219.913 117.817 Q 219.719 118.351 219.646 118.91 Z M 235.634 124.45 Q 236.995 124.45 237.7 124.305 L 237.7 121.048 Q 237.457 120.976 236.995 120.903 Q 236.533 120.83 235.974 120.83 Q 235.488 120.83 234.99 120.903 Q 234.492 120.976 234.091 121.17 Q 233.69 121.364 233.447 121.717 Q 233.204 122.069 233.204 122.604 Q 233.204 123.649 233.86 124.05 Q 234.516 124.45 235.634 124.45 Z M 235.391 113.491 Q 236.849 113.491 237.845 113.856 Q 238.842 114.22 239.437 114.876 Q 240.032 115.532 240.287 116.468 Q 240.543 117.403 240.543 118.521 L 240.543 126.224 Q 239.862 126.37 238.489 126.577 Q 237.116 126.783 235.391 126.783 Q 234.249 126.783 233.301 126.565 Q 232.354 126.346 231.685 125.86 Q 231.017 125.374 230.64 124.596 Q 230.264 123.819 230.264 122.677 Q 230.264 121.583 230.689 120.83 Q 231.114 120.076 231.843 119.603 Q 232.572 119.129 233.532 118.922 Q 234.492 118.716 235.537 118.716 Q 236.023 118.716 236.557 118.776 Q 237.092 118.837 237.7 118.983 L 237.7 118.497 Q 237.7 117.987 237.578 117.525 Q 237.457 117.063 237.153 116.711 Q 236.849 116.359 236.351 116.164 Q 235.853 115.97 235.099 115.97 Q 234.079 115.97 233.228 116.116 Q 232.378 116.261 231.843 116.456 L 231.479 114.074 Q 232.038 113.88 233.107 113.686 Q 234.176 113.491 235.391 113.491 Z M 246.445 120.125 Q 246.445 122.069 247.368 123.175 Q 248.292 124.28 249.92 124.28 Q 250.624 124.28 251.123 124.22 Q 251.621 124.159 251.937 124.086 L 251.937 116.796 Q 251.548 116.529 250.904 116.298 Q 250.26 116.067 249.531 116.067 Q 247.927 116.067 247.186 117.16 Q 246.445 118.254 246.445 120.125 Z M 254.877 126.127 Q 254.002 126.394 252.678 126.613 Q 251.353 126.832 249.895 126.832 Q 248.389 126.832 247.198 126.37 Q 246.007 125.908 245.169 125.046 Q 244.331 124.183 243.881 122.956 Q 243.432 121.729 243.432 120.198 Q 243.432 118.691 243.808 117.464 Q 244.185 116.237 244.914 115.362 Q 245.643 114.487 246.688 114.014 Q 247.733 113.54 249.094 113.54 Q 250.017 113.54 250.722 113.758 Q 251.426 113.977 251.937 114.244 L 251.937 108.145 L 254.877 107.659 Z M 257.918 120.222 Q 257.918 118.546 258.416 117.282 Q 258.914 116.018 259.74 115.18 Q 260.566 114.342 261.636 113.916 Q 262.705 113.491 263.823 113.491 Q 266.447 113.491 267.917 115.119 Q 269.387 116.747 269.387 119.979 Q 269.387 120.222 269.375 120.526 Q 269.363 120.83 269.339 121.073 L 260.955 121.073 Q 261.077 122.604 262.037 123.442 Q 262.996 124.28 264.819 124.28 Q 265.888 124.28 266.775 124.086 Q 267.662 123.892 268.172 123.673 L 268.561 126.079 Q 268.318 126.2 267.893 126.334 Q 267.468 126.467 266.921 126.577 Q 266.374 126.686 265.742 126.759 Q 265.11 126.832 264.454 126.832 Q 262.778 126.832 261.538 126.334 Q 260.299 125.836 259.497 124.949 Q 258.695 124.062 258.306 122.859 Q 257.918 121.656 257.918 120.222 Z M 266.447 118.91 Q 266.447 118.303 266.277 117.756 Q 266.107 117.209 265.779 116.808 Q 265.451 116.407 264.977 116.176 Q 264.503 115.945 263.847 115.945 Q 263.166 115.945 262.656 116.201 Q 262.146 116.456 261.794 116.869 Q 261.441 117.282 261.247 117.817 Q 261.052 118.351 260.979 118.91 Z M 279.738 116.456 Q 279.373 116.334 278.729 116.201 Q 278.085 116.067 277.235 116.067 Q 276.749 116.067 276.202 116.164 Q 275.655 116.261 275.437 116.334 L 275.437 126.516 L 272.496 126.516 L 272.496 114.415 Q 273.347 114.099 274.623 113.819 Q 275.898 113.54 277.454 113.54 Q 277.745 113.54 278.134 113.576 Q 278.523 113.613 278.912 113.673 Q 279.3 113.734 279.665 113.819 Q 280.029 113.904 280.248 113.977 Z"/>
</svg>